# xmcd CD database file
#
# Track frame offsets:
#	150
#	15399
#	29000
#	44031
#	59391
#	72151
#	85192
#	97792
#	111040
#	123682
#	137496
#	151923
#	166940
#	182454
#	196587
#	210057
#	236176
#
# Disc length: 3226 seconds
#
# Revision: 0
# Processed by: cddbd v1.4PL0 Copyright (c) Steve Scherf et al.
# Submitted via: CDex 1.50
#
DISCID=d60c9811
DTITLE=Bessie Smith - Big Blues Collection
DYEAR=2003
DGENRE=Blues
TTITLE0=Spider Man Blues
TTITLE1=Empty Bed Blues - part I
TTITLE2=Empty Bed Blues - part II
TTITLE3=Poor Man Blues
TTITLE4=Me and My Gin
TTITLE5=Standin' in the Rain Blues
TTITLE6=I'm Wild About That Thing
TTITLE7=Kitchen Man
TTITLE8=It Won't Be You
TTITLE9=You Don't Understand
TTITLE10=Moan, You Moaners
TTITLE11=Shipwreck Blues
TTITLE12=Long Old Road
TTITLE13=Washwoman's Blues
TTITLE14=Put it Right Here
TTITLE15=Yes Indeed He Do!
TTITLE16=Efes Adv.
EXTD=YEAR: 2003
EXTT0=
EXTT1=
EXTT2=
EXTT3=
EXTT4=
EXTT5=
EXTT6=
EXTT7=
EXTT8=
EXTT9=
EXTT10=
EXTT11=
EXTT12=
EXTT13=
EXTT14=
EXTT15=
EXTT16=
PLAYORDER=
